<?xml version="1.0" encoding="utf-8"?>
<!-- Generator: Adobe Illustrator 24.1.3, SVG Export Plug-In . SVG Version: 6.00 Build 0)  -->
<svg version="1.1" id="Layer_1" xmlns="http://www.w3.org/2000/svg" xmlns:xlink="http://www.w3.org/1999/xlink" x="0px" y="0px"
	 viewBox="0 0 305.4 243.4" style="enable-background:new 0 0 305.4 243.4;" xml:space="preserve">
<style type="text/css">
	.st0{fill-rule:evenodd;clip-rule:evenodd;fill:#FFFFFF;stroke:#000000;stroke-width:6;stroke-miterlimit:10;}
</style>
<g id="SVGRepo_bgCarrier">
</g>
<g id="SVGRepo_tracerCarrier">
</g>
<g id="SVGRepo_iconCarrier">
	<path class="st0" d="M302.4,156.4v61.3c0,11.4-11.7,20.6-26.2,20.6s-26.2-9.2-26.2-20.6v-60.4c0-23.4,0-39.7-1.3-52.4
		c-1.3-12.5-3.7-19.6-7.2-25c-7.6-11.6-19.6-21.1-34.4-27c-6.9-2.8-16-4.7-31.9-5.7c-16.2-1-37-1.1-66.8-1.1H31.3
		c-14.5,0-26.2-9.2-26.2-20.6C5.1,14.2,16.8,5,31.3,5h78.1c28.4,0,51.4,0,69.9,1.2c19.1,1.2,35.9,3.8,51.4,10
		c24.7,9.9,44.7,25.6,57.3,45c7.9,12.2,11.2,25.4,12.8,40.4C302.4,116.1,302.4,134.1,302.4,156.4z"/>
</g>
</svg>
