<?xml version="1.0" encoding="utf-8"?>
<!-- Generator: Adobe Illustrator 24.1.3, SVG Export Plug-In . SVG Version: 6.00 Build 0)  -->
<svg version="1.1" xmlns="http://www.w3.org/2000/svg" xmlns:xlink="http://www.w3.org/1999/xlink" x="0px" y="0px"
	 viewBox="0 0 320 318.2" style="enable-background:new 0 0 320 318.2;" xml:space="preserve">
<style type="text/css">
	.st0{opacity:0.5;fill:#5DB3C1;}
	.st1{fill:none;}
	.st2{opacity:0.3;clip-path:url(#SVGID_2_);fill:url(#SVGID_3_);}
	.st3{opacity:0.3;clip-path:url(#SVGID_2_);fill:url(#SVGID_4_);}
	.st4{fill:#FFFFFF;}
	.st5{opacity:0.3;clip-path:url(#XMLID_398_);fill:url(#SVGID_5_);}
	.st6{opacity:0.3;clip-path:url(#XMLID_398_);fill:url(#SVGID_6_);}
	.st7{fill:#4F9BA3;}
	.st8{fill:#5DB3C1;}
	.st9{clip-path:url(#XMLID_415_);fill:#5DB3C1;}
	.st10{clip-path:url(#XMLID_415_);fill:#CBECF4;}
	.st11{opacity:0.2;clip-path:url(#XMLID_415_);}
	.st12{clip-path:url(#XMLID_417_);fill:#417F7E;}
	.st13{clip-path:url(#XMLID_417_);fill:#5AA8A4;}
	.st14{opacity:0.2;clip-path:url(#XMLID_417_);}
	.st15{clip-path:url(#XMLID_626_);fill:#B3D3DD;}
	.st16{clip-path:url(#XMLID_626_);fill:#CBECF4;}
	.st17{opacity:0.2;clip-path:url(#XMLID_626_);}
	.st18{clip-path:url(#XMLID_627_);fill:#D1A76B;}
	.st19{opacity:0.2;clip-path:url(#XMLID_627_);}
	.st20{clip-path:url(#XMLID_628_);}
	.st21{fill:#EDBF7C;}
	.st22{fill:#FB7A54;}
	.st23{opacity:0.1;clip-path:url(#XMLID_628_);}
	.st24{clip-path:url(#XMLID_629_);fill:#F5F5F5;}
	.st25{clip-path:url(#XMLID_629_);fill:#D0F0F9;}
	.st26{clip-path:url(#XMLID_629_);}
	.st27{fill:#D0F0F9;}
	.st28{fill:#FFBD5C;}
	.st29{fill:#F5F5F5;}
	.st30{fill:#EAD6C1;}
	.st31{opacity:0.2;}
	.st32{fill:#3C3372;}
	.st33{opacity:0.3;clip-path:url(#XMLID_630_);fill:url(#SVGID_7_);}
	.st34{opacity:0.3;clip-path:url(#XMLID_630_);fill:url(#SVGID_8_);}
	.st35{clip-path:url(#XMLID_656_);fill:#5DB3C1;}
	.st36{clip-path:url(#XMLID_656_);fill:#CBECF4;}
	.st37{opacity:0.2;clip-path:url(#XMLID_656_);}
	.st38{clip-path:url(#XMLID_659_);fill:#417F7E;}
	.st39{clip-path:url(#XMLID_659_);fill:#5AA8A4;}
	.st40{opacity:0.2;clip-path:url(#XMLID_659_);}
	.st41{clip-path:url(#XMLID_660_);fill:#B3D3DD;}
	.st42{clip-path:url(#XMLID_660_);fill:#CBECF4;}
	.st43{opacity:0.2;clip-path:url(#XMLID_660_);}
	.st44{clip-path:url(#XMLID_661_);fill:#D1A76B;}
	.st45{opacity:0.2;clip-path:url(#XMLID_661_);}
	.st46{clip-path:url(#XMLID_662_);}
	.st47{opacity:0.1;clip-path:url(#XMLID_662_);}
	.st48{clip-path:url(#XMLID_663_);fill:#5DB3C1;}
	.st49{clip-path:url(#XMLID_663_);fill:#CBECF4;}
	.st50{opacity:0.2;clip-path:url(#XMLID_663_);}
	.st51{clip-path:url(#XMLID_664_);fill:#417F7E;}
	.st52{clip-path:url(#XMLID_664_);fill:#5AA8A4;}
	.st53{opacity:0.2;clip-path:url(#XMLID_664_);}
	.st54{clip-path:url(#XMLID_665_);fill:#B3D3DD;}
	.st55{clip-path:url(#XMLID_665_);fill:#CBECF4;}
	.st56{opacity:0.2;clip-path:url(#XMLID_665_);}
	.st57{clip-path:url(#XMLID_666_);fill:#D1A76B;}
	.st58{opacity:0.2;clip-path:url(#XMLID_666_);}
	.st59{clip-path:url(#XMLID_667_);}
	.st60{opacity:0.1;clip-path:url(#XMLID_667_);}
	.st61{opacity:0.3;clip-path:url(#XMLID_668_);fill:url(#SVGID_9_);}
	.st62{opacity:0.3;clip-path:url(#XMLID_668_);fill:url(#SVGID_10_);}
	.st63{clip-path:url(#XMLID_669_);fill:#5DB3C1;}
	.st64{clip-path:url(#XMLID_669_);fill:#CBECF4;}
	.st65{opacity:0.2;clip-path:url(#XMLID_669_);}
	.st66{clip-path:url(#XMLID_670_);fill:#417F7E;}
	.st67{clip-path:url(#XMLID_670_);fill:#5AA8A4;}
	.st68{opacity:0.2;clip-path:url(#XMLID_670_);}
	.st69{clip-path:url(#XMLID_671_);fill:#B3D3DD;}
	.st70{clip-path:url(#XMLID_671_);fill:#CBECF4;}
	.st71{opacity:0.2;clip-path:url(#XMLID_671_);}
	.st72{clip-path:url(#XMLID_673_);fill:#D1A76B;}
	.st73{opacity:0.2;clip-path:url(#XMLID_673_);}
	.st74{clip-path:url(#XMLID_674_);}
	.st75{opacity:0.1;clip-path:url(#XMLID_674_);}
	.st76{fill:#D1A76B;}
</style>
<g id="BACKGROUND">
</g>
<g id="OBJECTS">
	<g id="XMLID_393_">
		<g id="XMLID_651_">
			<path id="XMLID_654_" class="st8" d="M268.7,53.2h-37.8c-3.7,0-6.7-3-6.7-6.7V8.7c0-3.7,3-6.7,6.7-6.7h37.8c3.7,0,6.7,3,6.7,6.7
				v37.8C275.4,50.2,272.4,53.2,268.7,53.2z"/>
			<polygon id="XMLID_652_" class="st29" points="246.5,29.5 240.9,22.7 237,25.9 242.7,32.7 245.8,36.5 249.7,33.3 262.6,22.6 
				259.4,18.7 			"/>
		</g>
		<g id="XMLID_648_">
			<path id="XMLID_650_" class="st8" d="M268.7,110.8h-37.8c-3.7,0-6.7-3-6.7-6.7V66.3c0-3.7,3-6.7,6.7-6.7h37.8
				c3.7,0,6.7,3,6.7,6.7v37.8C275.4,107.8,272.4,110.8,268.7,110.8z"/>
			<polygon id="XMLID_649_" class="st29" points="246.5,87 240.9,80.3 237,83.5 242.7,90.2 245.8,94.1 249.7,90.9 262.6,80.1 
				259.4,76.3 			"/>
		</g>
		<g id="XMLID_645_">
			<path id="XMLID_647_" class="st28" d="M268.7,168.3h-37.8c-3.7,0-6.7-3-6.7-6.7v-37.8c0-3.7,3-6.7,6.7-6.7h37.8
				c3.7,0,6.7,3,6.7,6.7v37.8C275.4,165.3,272.4,168.3,268.7,168.3z"/>
			<polygon id="XMLID_646_" class="st29" points="246.5,144.6 240.9,137.8 237,141 242.7,147.8 245.8,151.6 249.7,148.4 
				262.6,137.7 259.4,133.8 			"/>
		</g>
		<path id="XMLID_644_" class="st8" d="M284,184h-134c-1.6,0-2.9-1.3-2.9-2.9l0,0c0-1.6,1.3-2.9,2.9-2.9h134c1.6,0,2.9,1.3,2.9,2.9
			l0,0C286.9,182.7,285.6,184,284,184z"/>
		<g id="XMLID_640_">
			<path id="XMLID_643_" class="st8" d="M212.4,20.6h-46c-1.6,0-2.9-1.3-2.9-2.9l0,0c0-1.6,1.3-2.9,2.9-2.9h46
				c1.6,0,2.9,1.3,2.9,2.9l0,0C215.3,19.4,214,20.6,212.4,20.6z"/>
			<path id="XMLID_642_" class="st8" d="M212.4,32.8h-46c-1.6,0-2.9-1.3-2.9-2.9l0,0c0-1.6,1.3-2.9,2.9-2.9h46
				c1.6,0,2.9,1.3,2.9,2.9l0,0C215.3,31.5,214,32.8,212.4,32.8z"/>
			<path id="XMLID_641_" class="st8" d="M212.4,44.9h-46c-1.6,0-2.9-1.3-2.9-2.9l0,0c0-1.6,1.3-2.9,2.9-2.9h46
				c1.6,0,2.9,1.3,2.9,2.9l0,0C215.3,43.6,214,44.9,212.4,44.9z"/>
		</g>
		<g id="XMLID_636_">
			<path id="XMLID_639_" class="st8" d="M212.4,78.2h-46c-1.6,0-2.9-1.3-2.9-2.9l0,0c0-1.6,1.3-2.9,2.9-2.9h46
				c1.6,0,2.9,1.3,2.9,2.9l0,0C215.3,76.9,214,78.2,212.4,78.2z"/>
			<path id="XMLID_638_" class="st8" d="M212.4,90.3h-46c-1.6,0-2.9-1.3-2.9-2.9l0,0c0-1.6,1.3-2.9,2.9-2.9h46
				c1.6,0,2.9,1.3,2.9,2.9l0,0C215.3,89,214,90.3,212.4,90.3z"/>
			<path id="XMLID_637_" class="st8" d="M212.4,102.5h-46c-1.6,0-2.9-1.3-2.9-2.9l0,0c0-1.6,1.3-2.9,2.9-2.9h46
				c1.6,0,2.9,1.3,2.9,2.9l0,0C215.3,101.2,214,102.5,212.4,102.5z"/>
		</g>
		<g id="XMLID_632_">
			<path id="XMLID_635_" class="st28" d="M212.4,135.7h-46c-1.6,0-2.9-1.3-2.9-2.9l0,0c0-1.6,1.3-2.9,2.9-2.9h46
				c1.6,0,2.9,1.3,2.9,2.9l0,0C215.3,134.4,214,135.7,212.4,135.7z"/>
			<path id="XMLID_634_" class="st28" d="M212.4,147.9h-46c-1.6,0-2.9-1.3-2.9-2.9l0,0c0-1.6,1.3-2.9,2.9-2.9h46
				c1.6,0,2.9,1.3,2.9,2.9l0,0C215.3,146.6,214,147.9,212.4,147.9z"/>
			<path id="XMLID_633_" class="st28" d="M212.4,160h-46c-1.6,0-2.9-1.3-2.9-2.9l0,0c0-1.6,1.3-2.9,2.9-2.9h46
				c1.6,0,2.9,1.3,2.9,2.9l0,0C215.3,158.7,214,160,212.4,160z"/>
		</g>
		<g id="XMLID_579_">
			<g id="XMLID_612_">
				<defs>
					<path id="XMLID_622_" d="M198.3,262.9c2.1-6.1,9.1-2.4,13.2-0.5c-0.3-2.2-0.5-4.5-0.8-6.8c-0.2-2-0.7-4.3-0.2-6.3
						c0.6-2.4,3.2-4.4,5.5-3c1.1,0.7,1.8,2.1,2.4,3.2c1.3,2.3,2.5,4.9,4.1,7.1c1.1,1.5,0.9,1.4,2.9,1.3c1.9-0.1,1.8,0.1,2.5-1.6
						c0.5-1.3,0.7-2.7,1-4.1c0.3-1.7,0.8-3.5,2-4.9c1.6-1.8,4.3-2.9,6.3-1c2.4,2.2,2.5,6.6,2.4,9.6c-0.1,2.2-0.9,4.3-1,6.4
						c-0.1,1.4,1.3,3.1,2.9,2.6c1.2-0.4,2-1.2,3-2c2.2-1.7,5-2.5,6.7,0.2c2.1,3.3-0.4,6.8-2.6,9.4c-3.6,4.3-7.3,8.6-11,12.9
						c0,0,0,0,0,0c-0.3,2.1-2.5,2.3-4.2,2.3c-3.8-0.1-7.8-0.8-11.6-1.6c-6.6-1.4-13-4.2-17.9-9C200.6,273.9,196.5,268,198.3,262.9z"
						/>
				</defs>
				<clipPath id="XMLID_398_">
					<use xlink:href="#XMLID_622_"  style="overflow:visible;"/>
				</clipPath>
				<path id="XMLID_625_" style="clip-path:url(#XMLID_398_);fill:#5DB3C1;" d="M198.3,262.9c2.1-6.1,9.1-2.4,13.2-0.5
					c-0.3-2.2-0.5-4.5-0.8-6.8c-0.2-2-0.7-4.3-0.2-6.3c0.6-2.4,3.2-4.4,5.5-3c1.1,0.7,1.8,2.1,2.4,3.2c1.3,2.3,2.5,4.9,4.1,7.1
					c1.1,1.5,0.9,1.4,2.9,1.3c1.9-0.1,1.8,0.1,2.5-1.6c0.5-1.3,0.7-2.7,1-4.1c0.3-1.7,0.8-3.5,2-4.9c1.6-1.8,4.3-2.9,6.3-1
					c2.4,2.2,2.5,6.6,2.4,9.6c-0.1,2.2-0.9,4.3-1,6.4c-0.1,1.4,1.3,3.1,2.9,2.6c1.2-0.4,2-1.2,3-2c2.2-1.7,5-2.5,6.7,0.2
					c2.1,3.3-0.4,6.8-2.6,9.4c-3.6,4.3-7.3,8.6-11,12.9c0,0,0,0,0,0c-0.3,2.1-2.5,2.3-4.2,2.3c-3.8-0.1-7.8-0.8-11.6-1.6
					c-6.6-1.4-13-4.2-17.9-9C200.6,273.9,196.5,268,198.3,262.9z"/>
				<path id="XMLID_624_" style="clip-path:url(#XMLID_398_);fill:#CBECF4;" d="M206.9,265.9c8.4,8.8,17.9,16.3,28.1,22.9l0,0
					c-3.5-4.5-6.6-8.9-9.3-14c-3.2-6-5.8-12.3-8-18.8c-0.2-0.6,0.7-1,0.9-0.4c2.1,6.2,4.6,12.2,7.6,18c1.5,3,3.1,6,5,8.8
					c1.2,1.7,2.5,3.4,3.9,5c-0.1-1.6-0.1-3.2-0.2-4.8c-0.1-3.2-0.1-6.4-0.1-9.6c0-5.9-0.3-12.1,0.7-18c0.1-0.6,1.1-0.5,1,0.1
					c-1,5.8-0.7,11.9-0.7,17.7c0,2.7,0,5.4,0.1,8.2c0,1.7,0,3.4,0.1,5.2c1.2-3.1,2.7-6.1,4.3-9.1c1.8-3.3,3.5-7.1,6.1-9.9
					c0.4-0.5,1.2,0.1,0.8,0.6c-2.7,2.9-4.5,6.9-6.4,10.5c-1.7,3.3-3.3,6.7-4.5,10.2c0,0.1,0,0.2,0,0.2c0.2,0.3,0.5,0.6,0.7,0.9
					c0.1,0,0.2,0.1,0.3,0.2c0.1,0.2,0.3,0.4,0.4,0.6c0.2,0.1,0.4,0.3,0.7,0.4c0.5,0.3-0.1,1.1-0.6,0.8c-0.4-0.2-0.7-0.5-1.1-0.7
					c-0.2,0.3-0.7,0.5-0.9,0c-0.1-0.2-0.1-0.4-0.1-0.6c-10.7-6.8-20.6-14.6-29.4-23.8C205.7,266.1,206.4,265.5,206.9,265.9z"/>
				<path id="XMLID_623_" style="opacity:0.2;clip-path:url(#XMLID_398_);" d="M250.2,273.3c0,0-5.6,10.1-17.9,8.4
					c-12.4-1.8-33.7-9.7-33.7-9.7l21.1,20.7l26.9-0.9L250.2,273.3z"/>
			</g>
			<g id="XMLID_607_">
				<defs>
					<path id="XMLID_608_" d="M229.1,266c0.7,0.7,1.2,1.5,1.9,2.2c1.2,1.3,2.2,2.1,2.7,0c0.7-2.7-0.1-5.6-0.4-8.4
						c-0.3-2.8,0.1-8.7,4.5-7c4.1,1.7,3.4,8.6,3.6,12.1c0.1,1.6,0.2,3.3,0.7,4.9c1.1,3.4,4.3,0.9,5.8-0.5c1.5-1.4,3.2-2.9,5.3-3.1
						c4.5-0.4,5.4,5.1,3.3,8.1c-1.5,2.2-3.9,3.5-6.1,4.8c-2.7,1.7-5.5,3.4-8.3,5.1c-2.6,3-5.8,5.7-10,5.4c-4.4-0.3-6.5-4-7.9-7.7
						c-1-2.8-1.9-5.6-2.8-8.4c-0.6-2.1-1.1-4.4-0.2-6.5C222.9,263.8,226.6,263.4,229.1,266z"/>
				</defs>
				<clipPath id="XMLID_415_">
					<use xlink:href="#XMLID_608_"  style="overflow:visible;"/>
				</clipPath>
				<path id="XMLID_611_" style="clip-path:url(#XMLID_415_);fill:#417F7E;" d="M229.1,266c0.7,0.7,1.2,1.5,1.9,2.2
					c1.2,1.3,2.2,2.1,2.7,0c0.7-2.7-0.1-5.6-0.4-8.4c-0.3-2.8,0.1-8.7,4.5-7c4.1,1.7,3.4,8.6,3.6,12.1c0.1,1.6,0.2,3.3,0.7,4.9
					c1.1,3.4,4.3,0.9,5.8-0.5c1.5-1.4,3.2-2.9,5.3-3.1c4.5-0.4,5.4,5.1,3.3,8.1c-1.5,2.2-3.9,3.5-6.1,4.8c-2.7,1.7-5.5,3.4-8.3,5.1
					c-2.6,3-5.8,5.7-10,5.4c-4.4-0.3-6.5-4-7.9-7.7c-1-2.8-1.9-5.6-2.8-8.4c-0.6-2.1-1.1-4.4-0.2-6.5
					C222.9,263.8,226.6,263.4,229.1,266z"/>
				<path id="XMLID_610_" style="clip-path:url(#XMLID_415_);fill:#5AA8A4;" d="M227.4,270.6c2,3.3,3.6,6.8,4.9,10.4
					c1.1,3,2.4,6,3,9.2c0.4-0.7,0.7-1.3,1.1-1.9c1.2-9.2,2.2-18.2,0.8-27.5c-0.1-0.6,0.8-0.9,0.9-0.3c1.3,8.7,0.5,17.2-0.5,25.8
					c1.5-2.4,3.2-4.7,5.1-6.8c3-3.4,6.4-5.7,10.3-7.8c0.6-0.3,1.1,0.5,0.5,0.8c-3.9,2.1-7.2,4.3-10.1,7.7c-2.3,2.6-4.3,5.4-6.1,8.4
					c-0.2,1.2-0.3,2.4-0.5,3.6c0.1,0.1,0.1,0.3,0,0.4c-0.1,0.1-0.1,0.2-0.2,0.3c-0.2,0.5-1,0.1-0.9-0.4c0.1-0.6,0.1-1.2,0.2-1.8
					c0,0.1-0.1,0.2-0.1,0.2c-0.1,0.2-0.3,0.3-0.5,0.2c0,0.3,0.1,0.7,0.1,1c0.1,0.6-0.9,0.6-1,0c-0.3-3.8-1.9-7.4-3.3-11
					c-1.3-3.5-2.9-6.9-4.8-10.1C226.2,270.5,227,270,227.4,270.6z"/>
				<path id="XMLID_609_" class="st11" d="M251.4,279.4c0,0-8.8,3.7-13.4,2.5c-4.6-1.2-13.2-2.3-18.6-11.3l2.5,21l26.1,5.1
					L251.4,279.4z"/>
			</g>
			<g id="XMLID_600_">
				<defs>
					<path id="XMLID_601_" d="M214.4,263.8c1.2,1.3,2,3,2.8,4.5c1.3,2.3,2.6,4.6,3.8,6.9c0.8,1.5,1.7,4.2,4,3.8
						c1.1-0.2,2.5-1.6,3.3-2.3c1.7-1.4,2.9-3.1,4.5-4.6c1.8-1.6,5-2.7,6.7-0.4c2,2.7,0.2,6.8-1.7,9c-2.7,3.3-6.6,5.1-10.1,7.4
						c0,0.1,0,0.2,0,0.2c-1.2,2.3-3.8,2.9-6.2,2.4c-3.3-0.7-5.8-3.4-7.5-6.1c-2.2-3.4-3.9-7.2-5.5-11c-1.3-3-2.5-7.1-0.2-10
						C210.1,261.8,212.7,262,214.4,263.8z"/>
				</defs>
				<clipPath id="XMLID_417_">
					<use xlink:href="#XMLID_601_"  style="overflow:visible;"/>
				</clipPath>
				<path id="XMLID_605_" style="clip-path:url(#XMLID_417_);fill:#B3D3DD;" d="M214.4,263.8c1.2,1.3,2,3,2.8,4.5
					c1.3,2.3,2.6,4.6,3.8,6.9c0.8,1.5,1.7,4.2,4,3.8c1.1-0.2,2.5-1.6,3.3-2.3c1.7-1.4,2.9-3.1,4.5-4.6c1.8-1.6,5-2.7,6.7-0.4
					c2,2.7,0.2,6.8-1.7,9c-2.7,3.3-6.6,5.1-10.1,7.4c0,0.1,0,0.2,0,0.2c-1.2,2.3-3.8,2.9-6.2,2.4c-3.3-0.7-5.8-3.4-7.5-6.1
					c-2.2-3.4-3.9-7.2-5.5-11c-1.3-3-2.5-7.1-0.2-10C210.1,261.8,212.7,262,214.4,263.8z"/>
				<path id="XMLID_604_" style="clip-path:url(#XMLID_417_);fill:#CBECF4;" d="M213.7,269.6c0.8,1.5,1.5,2.9,2.3,4.4
					c0.1-0.3,0.1-0.7,0.2-1c0.1-0.6,0.3-1.1,0.4-1.7c0.1-0.6,1.1-0.5,1,0.1c-0.2,0.8-0.4,1.6-0.6,2.4c-0.1,0.4-0.1,1-0.3,1.4
					c0.7,1.4,1.4,2.9,2.2,4.4c0.2-0.8,0.5-1.6,0.8-2.4c0.2-0.6,1.1-0.2,0.9,0.4c-0.4,1-0.8,2.1-1,3.2c0,0,0,0.1,0,0.1
					c1.4,2.8,2.7,5.6,4,8.4c0.2-2.5,0.9-4.8,2.9-6.8c0.9-0.9,1.8-1.6,2.8-2.3c0,0,0-0.1,0-0.1c0-0.9,0.1-1.9,0.1-2.8
					c0-0.6,1-0.5,1,0.1c0,0.7,0,1.4-0.1,2.2c1-0.7,2.1-1.4,3-2.2c0-0.1-0.1-0.2-0.1-0.3c0-1.1,0-2.2,0-3.3c0-0.6,1-0.7,1-0.1
					c0,1,0,1.9,0,2.9c0.8-0.8,1.5-1.6,2-2.6c0.3-0.6,1.2-0.2,0.9,0.4c-0.5,1-1.2,1.9-1.9,2.6c0.9-0.1,1.9-0.3,2.8-0.4
					c0.6-0.1,0.7,0.8,0.1,1c-1.4,0.3-2.8,0.5-4.1,0.6c-0.9,0.8-1.9,1.5-2.9,2.2c0.1,0,0.1,0,0.2,0c1,0.1,1.9,0.3,2.9,0.4
					c0.6,0.1,0.5,1.1-0.1,1c-0.7-0.1-1.4-0.2-2.1-0.3c-0.3,0-0.6-0.1-0.9-0.1c-0.1,0-0.6-0.1-0.8-0.2c0,0,0,0,0,0c0,0,0,0,0,0
					c-0.1,0.1-0.2,0.1-0.3,0.1c-1.3,0.9-2.7,1.9-3.6,3.2c-1.6,2.1-1.7,4.5-1.7,6.9c0.1,0.2,0.2,0.4,0.3,0.6c0.3,0.6-0.6,0.9-0.9,0.4
					c0,0,0,0,0,0c-0.2,0-0.3-0.2-0.3-0.4c0-0.1,0-0.2,0-0.3c-1.6-3.5-3.2-7.1-4.9-10.5c-1-0.4-2-0.9-3-1.3c-0.4-0.2-0.4-0.9,0.1-0.9
					c0.1,0,0.1,0,0.2,0c0.2,0,0.3,0.1,0.4,0.2c0.5,0.2,1,0.5,1.6,0.7c-0.7-1.3-1.3-2.7-2-4c-0.3-0.1-0.5-0.2-0.7-0.3
					c-0.8-0.3-1.6-0.7-2.4-1c-0.6-0.2-0.2-1.1,0.4-0.9c0.5,0.2,1.1,0.5,1.6,0.7c0.1,0.1,0.3,0.1,0.4,0.2c-0.7-1.4-1.5-2.9-2.2-4.3
					C212.5,269.4,213.4,269,213.7,269.6z"/>
				<path id="XMLID_602_" class="st14" d="M235.6,283.6c0,0-5.2,3.5-10.7,2.7c-5.5-0.8-14.6-7.5-14.6-7.5l6.8,15.8l16.3,0.1
					L235.6,283.6z"/>
			</g>
			<g id="XMLID_596_">
				<defs>
					<path id="XMLID_597_" d="M216.9,296.9c1.7-5.8,7.2-9.4,13.2-9.3c5.8,0.1,13.3,3,14.8,9.2c0.1,0,0.1,0,0.2,0
						c0.5,0,0.5,0.8,0,0.8c-9.3-0.1-18.6-0.1-27.9-0.2C217.1,297.4,216.9,297.2,216.9,296.9z"/>
				</defs>
				<clipPath id="XMLID_626_">
					<use xlink:href="#XMLID_597_"  style="overflow:visible;"/>
				</clipPath>
				<path id="XMLID_599_" style="clip-path:url(#XMLID_626_);fill:#D1A76B;" d="M216.9,296.9c1.7-5.8,7.2-9.4,13.2-9.3
					c5.8,0.1,13.3,3,14.8,9.2c0.1,0,0.1,0,0.2,0c0.5,0,0.5,0.8,0,0.8c-9.3-0.1-18.6-0.1-27.9-0.2
					C217.1,297.4,216.9,297.2,216.9,296.9z"/>
				<path id="XMLID_598_" class="st17" d="M242.1,286.6c0,0-1.1,5.4-10.9,5.4c-9.7,0-12.2-4.9-12.2-4.9L242.1,286.6z"/>
			</g>
		</g>
		<g id="XMLID_537_">
			<defs>
				<path id="XMLID_538_" d="M278.9,294.1c0,0-4.4,9.8-29.7,9.8c-25.4,0-27.7,11.1-43.8,11.1c-16.1,0-24.8-4.8-47.7-4.8
					c-22.9,0-28.5,9.2-44.6,7.9c-16.1-1.2-13.2-6.9-41.6-8.2c-28.4-1.2-38.4-15.8-38.4-15.8H278.9z"/>
			</defs>
			<clipPath id="XMLID_627_">
				<use xlink:href="#XMLID_538_"  style="overflow:visible;"/>
			</clipPath>
			<g id="XMLID_566_" style="clip-path:url(#XMLID_627_);">
				<path id="XMLID_578_" class="st21" d="M291.8,294.1H14.5c0,0-20.3,35.5,8.2,36.7c28.4,1.2,43.6-5.1,59.7-3.8
					c16.1,1.2,54.8-1,77.7-1c22.9,0,30.4-4.1,46.5-4.1c16.1,0,22.6-1,48-1C279.9,321,291.8,294.1,291.8,294.1z"/>
				<g id="XMLID_567_">
					<path id="XMLID_577_" class="st22" d="M220.7,298c0.6,0.2,0.7,0.8,0.5,1.2c0.5,1.4-1.3,2.8-2.5,1.6
						C217.4,299.4,219,297.4,220.7,298z"/>
					<path id="XMLID_576_" class="st22" d="M201.2,304.8c1.2-1.3,2.7-0.1,3.3,1.1c0.4,0.7-0.2,1.3-0.8,1.3c-0.2,0.2-0.4,0.3-0.6,0.3
						c-0.7,0-1.5-0.2-1.9-0.8C200.7,306.1,200.7,305.3,201.2,304.8z"/>
					<path id="XMLID_574_" class="st22" d="M181.4,299c0.1,0.1,0.1,0.1,0.2,0.2c0.8,0.8-0.4,2-1.2,1.2l-0.2-0.2
						C179.3,299.5,180.6,298.2,181.4,299z"/>
					<path id="XMLID_573_" class="st22" d="M120.2,307.9c1.2-0.4,2.8,0.5,2.3,1.9c-0.1,0.3-0.3,0.4-0.5,0.5c0,0.4-0.2,0.9-0.5,1.2
						c-0.9,0.8-2.3,0.3-2.7-0.6C118.2,309.7,119.1,308.3,120.2,307.9z"/>
					<path id="XMLID_572_" class="st22" d="M148.9,301.1c0.6-0.8,2,0,1.4,1c-0.5,1-1.8,1.1-2.6,0.3
						C147,301.6,148.2,300.5,148.9,301.1z"/>
					<path id="XMLID_571_" class="st22" d="M107.8,298.6c0.1-0.1,0.3-0.2,0.4-0.3c0.3-0.5,0.9-0.7,1.4-0.2c0.1,0.1,0.2,0.2,0.2,0.3
						c0.2,0.1,0.4,0.3,0.5,0.6c0.1,0.2,0.1,0.3,0.1,0.5c0.2,0.6,0.2,1.2-0.2,1.7c-0.6,0.8-1.8,1.1-2.5,0.4
						C106.9,300.8,107.1,299.3,107.8,298.6z"/>
					<path id="XMLID_570_" class="st22" d="M87.4,303.6c0.6-0.2,1.2,0,1.6,0.4c0.3,0.3,0.3,0.8,0.1,1.1c-0.1,0.3-0.4,0.6-0.8,0.6
						c-0.6,0-1.1-0.3-1.4-0.8C86.7,304.3,86.9,303.8,87.4,303.6z"/>
					<path id="XMLID_569_" class="st22" d="M41.4,297.7c0.9-0.8,2-0.5,3,0c0.9,0.4,0.3,1.7-0.6,1.6c0,0.1,0,0.2-0.1,0.3
						c-0.4,0.9-1.5,1.1-2.3,0.5C40.6,299.4,40.7,298.4,41.4,297.7z"/>
					<path id="XMLID_568_" class="st22" d="M167.5,301.6c0.2-0.2,0.4-0.3,0.6-0.3c0,0,0,0,0.1,0c2.1-0.6,3.4,2.3,1.4,3.3
						C167.6,305.6,166.1,303.1,167.5,301.6z"/>
				</g>
			</g>
			<path id="XMLID_539_" style="opacity:0.1;clip-path:url(#XMLID_627_);" d="M156.8,290.5c0,0-6.5,8.8-16.4,9.1
				c-10,0.3-17.9-0.6-22.6,2.9c-4.7,3.5-20.5,3.1-27-0.1c-6.5-3.2-14.7,0.4-19.4,1.5c-4.7,1.2-8.3-3-10.6-5.6
				c-2.3-2.6-12-6.7-12-6.7L156.8,290.5z"/>
		</g>
		<g id="XMLID_399_">
			<g id="XMLID_534_">
				<path id="XMLID_536_" class="st8" d="M120.9,60.4c0.2,2.4-0.8,3.8-2.9,4c-2,0.2-3.5-1-3.8-3.2c-0.2-1.4,0.2-2,1.5-2.3
					c0.6-0.1,1.2-0.1,1.8-0.2c0.5-0.1,1-0.1,1.3-0.2C120.5,58.5,120.8,58.8,120.9,60.4z"/>
				<path id="XMLID_535_" class="st8" d="M106.4,59.1c1.9-0.2,2.2,0.1,2.1,2.3c0.1,1.6-0.6,2.8-2.3,3.6c-1.2,0.5-2.5,0.9-3.6-0.1
					c-1.3-1.1-1.6-2.7-1.6-4.3c0-0.3,0.8-0.8,1.3-0.9C103.6,59.4,105,59.2,106.4,59.1z"/>
			</g>
			<path id="XMLID_533_" class="st30" d="M109.7,54.7c1.6-0.1,2.1,0.2,2.3,1.8c0.1,0.7,0,1.4-0.1,2.1c-0.1,0.5-0.5,1-0.7,1.5
				c-0.3-0.4-0.8-0.8-1-1.2c-0.3-1.4-1.2-1.7-2.4-1.6c-2.3,0.2-4.5,0.5-6.8,0.8c-1.3,0.2-1.9,1-1.8,2.3c0,0.7,0,1.4,0.1,2.1
				c0.4,2.7,2,4.6,4,5c2.4,0.4,5.3-1,6.5-3.3c0.2-0.4,0.2-0.8,0.4-1.1c0.5-1.1,1.2-1.2,1.9-0.2c1,1.3,1.9,2.7,2.7,3.8
				c-1.5,1.5-2.7,2.6-3.7,3.9c-2.2,2.8-5.1,4.4-8.5,5.1c-1.2,0.3-1.9,0.5-1.5,2.1c0.4,1.7,0.1,3.5,0.1,5.7c-2.4-0.6-4.7-1.2-7-1.9
				c-0.4-0.1-0.9-0.8-1-1.3c-0.9-2.9-2.1-5.8-1-9c0.4-1.4,0-2.6-1.1-3.8c-1.1-1.1-1.8-2.6-2.6-3.9c-0.3-0.5-0.5-1.1-0.6-1.7
				c-0.5-2.3,0.3-4.9,1.9-5.5c2-0.8,3.7,0.1,5.1,1.4c0.2,0.2,0.4,0.5,0.6,0.7c0.8,0.7,1.7,0.6,1.9-0.3c0.6-3,2.5-2.8,4.9-2.8
				C104.8,55.3,107.2,54.9,109.7,54.7z"/>
			<path id="XMLID_532_" class="st7" d="M88.6,71.5c-3.3-3.8-5.5-8.2-6.9-13.1c-0.9-3.4-0.7-6.7,0.3-10c1.6-4.9,4.8-7.3,9.9-7.5
				c0.5,0,1-0.1,1.5,0c1.5,0.2,2.4-0.4,3.2-1.6c3.1-4.2,6.9-7.6,11.2-10.5c4.1-2.8,8.4-4.8,13.4-5.4c2.8-0.4,5.5-0.1,8.2,0.7
				c4.1,1.3,6.1,4.7,5.4,9c-0.7,4.2-2.7,7.7-5.9,10.4c-8.5,6.8-18.1,10.5-29.2,9.7c-2.1-0.2-2.1-0.2-3.8,2.4c-1.1-0.5-2.1-1-3.3-1.3
				c-3.4-0.9-5.8,0.7-6.6,4.1c-0.4,1.8-0.3,3.6,0.5,5.2c0.7,1.5,1.5,3.1,2.6,4.3c1.3,1.4,1.3,2.7,0.8,4.7
				C89.4,72.1,89,71.9,88.6,71.5z"/>
			<path id="XMLID_531_" class="st30" d="M185.3,140.3c-1.8,0.3-1.9,0.4-2,2.3c-0.1,2.3-0.3,4.5-0.5,6.8c-0.1,1-0.5,1.8-1.6,1.8
				c-2.5,0.1-5.2,0.8-6.8-2.2c-0.3-0.5-1.3-0.8-2-0.8c-10.7-0.4-21.4-0.7-32.1-1.1c-1.9-0.1-3.7-0.1-6-0.2c0.8-2.1,1.5-4,2.3-5.8
				c0.5-1.2,1-2.4,1.5-3.5c0.8-1.7,0.8-1.7,2.7-1.2c9.5,2.5,19.3,3.2,29,4.9c3.1,0.5,6-0.1,8.4-2.1c2.1-1.7,4.2-2,6.6-1.1
				c1.5,0.5,3.3,0.5,5.1,1.8C188,140,186.6,140.1,185.3,140.3z"/>
			<path id="XMLID_522_" class="st30" d="M109.3,274.2c0.1,2.2,0,4.4,0,6.5c-0.1,0-0.2,0-0.3,0c0,2,0,4,0,5.9c0,1.2-0.7,1.5-1.7,1.5
				c-1,0-1.8-0.2-1.8-1.4c0-0.7,0-1.4,0-2.1c0.1-3.5,0.1-6.9,0.2-10.4c0-0.9,0.2-1.5,1.3-1.5C108.6,272.8,109.2,273,109.3,274.2z"/>
			<path id="XMLID_521_" class="st30" d="M69.7,275c-0.2,3.2-0.5,6.3-0.7,9.5c-0.1,1.1-0.5,1.7-1.6,1.7c-1.1-0.1-1.9-0.5-1.8-1.8
				c0.1-2.3,0.1-4.6,0.2-6.8c0-1,0.1-2,0.1-3c0-2.4,0.1-2.4,2.2-2.4c1.2,0,1.9,0.4,1.8,1.7C69.7,274.2,69.7,274.7,69.7,275
				C69.7,275,69.7,275,69.7,275z"/>
			<g id="XMLID_518_">
				<path id="XMLID_520_" class="st7" d="M113.7,291.7c1.4,1,2.9,1.9,4.3,2.8c-0.1,0.2-0.2,0.4-0.3,0.6c-3.9,0-7.9,0.1-11.8,0
					c-2.6-0.1-2.7-0.4-2.4-3.1c0.1-0.4,0.1-0.8,0.2-1.2c0.1-0.8,0.5-1.2,1.4-1c0.8,0.2,1.6,0.5,2.3,0.3
					C110,289.2,111.8,290.4,113.7,291.7z"/>
				<path id="XMLID_519_" class="st7" d="M71.2,288.1c2.2,1.7,4.3,3.4,6.4,5.2c0.1,0.1,0,0.3,0.1,0.8c-4.3,0.1-8.6,0-12.9-0.4
					c-0.9-0.1-1.2-0.5-1.2-1.3c0.1-1.6,0.3-3.3,0.4-5.3c2,1,3.7,1.3,5.4,0.7C70,287.6,70.8,287.8,71.2,288.1z"/>
			</g>
			<path id="XMLID_517_" class="st8" d="M116.1,183c2.4,0.2,2.4,0.2,2.3,2.7c-0.3,4.8-0.5,9.7-0.9,14.5c-0.8,9.4-1.7,18.8-2.4,28.2
				c-1,13.4-1.7,26.9-2.5,40.4c-0.1,2.1-0.1,2.1-2.2,2.2c-1.5,0.1-3,0-4.5,0c-1.4,0-2.1-0.6-2.4-2c-1.1-4.8-2.5-9.6-3.6-14.4
				c-2.2-10-4.3-20-6.2-30c-1.8-9.7-3.2-19.6-4.8-29.3c-0.2-1-0.4-1.9-0.7-2.9c-0.1-0.3-0.6-0.6-0.9-0.5c-0.3,0-0.6,0.5-0.7,0.8
				c-0.1,0.4,0.1,0.8,0.1,1.2c0.4,2.4,0.7,4.7,1.2,7.1c0.4,1.9,0.3,3.8-0.2,5.6c-4.4,14.9-7.1,30.1-10,45.3
				c-1,5.5-2.1,10.9-3.2,16.4c-0.5,2.5-0.5,2.5-3.1,2.4c-2.3-0.1-4.6-0.1-6.8-0.2c-2.4-0.1-2.4-0.2-2.5-2.7c0-4.2,0.1-8.3,0.1-12.5
				c0-9.9,0-19.8,0-29.7c0.2,0,0.3,0,0.5,0c0-11.5,0-23,0-34.5c0-3,0.3-5.9,0.5-8.9c0.1-1.3,0.6-1.7,1.9-1.6
				c4.6,0.3,9.1,0.6,13.7,0.9c12.2,0.6,24.4,1.2,36.6,1.8C115.5,182.9,115.8,182.9,116.1,183z"/>
			<path id="XMLID_516_" class="st30" d="M64,145.7c0.9,1.8,1.1,3.5,0.4,5.4c-0.4,1-0.5,2.1-0.9,3.7c-0.7-0.8-1.1-1.1-1.4-1.6
				c-3.7-5.7-7.4-11.4-10.4-17.6c-1.1-2.3-1.2-4.3,0.2-6.4c0.9-1.4,1.7-2.9,2.6-4.5c0.6,0.5,1.1,0.8,1.5,1.2
				c1.7,1.9,3.4,3.9,5.2,5.7c0.8,0.8,0.8,1.5,0.1,2.3c-0.2,0.2-0.4,0.5-0.6,0.7c-1.1,1-1.1,2-0.4,3.4
				C61.6,140.5,62.7,143.2,64,145.7z"/>
			<path id="XMLID_515_" class="st28" d="M136.6,124.8c-10-10.8-20.1-21.4-30.6-31.6c-0.6-0.6-0.8-1.1-0.3-1.8
				c0.8-1.1,1.6-2.2,2.6-3.6c-6-2.5-12.1-3.9-18.6-5.7c0.4,3.2-1.3,5-3.2,6.6c-1.9,1.7-3.1,3.8-4,6.1c-0.7-0.3-1.6-0.3-2.3,0
				c0.1-0.2,0.1-0.5,0.2-0.7c-0.6,0.4-1.2,0.7-1.6,1c-5.5,4.5-11.1,9-16.5,13.6c-3.2,2.7-6.1,5.6-9.2,8.4c-0.8,0.7-1,1.4-0.2,2.3
				c0.4,0.5,0.8,1.2,1.2,1.7c4.4,4.9,8.8,9.7,13.1,14.5c0.1,0.1,0.3,0.2,0.5,0.3c0.5,0.9,1,1.5,2,2.2c-1.6,6-3.1,12.1-4.7,18.1
				c-1.7,6.5-3.1,13.1-4.7,19.6c-0.4,1.7-0.4,1.9,1.4,2c3.4,0.3,6.7,0.6,10.1,0.8c12.8,0.8,25.6,1.5,38.3,2.2
				c2.6,0.1,5.2,0.2,7.7,0.2c1.7,0,1.8-0.1,1.8-1.9c0-0.3-0.1-0.6-0.1-0.9c-1-10.4-2.1-20.7-2.9-31.1c-0.4-4.5-1.1-8.8-3.4-12.7
				c-1.2-1.9-1.9-4.1-2.9-6.2c-0.2-0.5-0.5-1.1-0.6-1.7c0-0.3,0.2-0.8,0.4-1c0.3-0.1,0.8,0,1,0.3c0.5,0.6,0.7,1.4,1.1,2.1
				c4.5,8.9,8.9,17.9,13.4,26.9c0.4,0.8,1,1.6,1.5,2.4c0.4-0.3,0.6-0.4,0.7-0.6c3.5-8.1,6.8-16.3,10.4-24.3
				C139.5,129.4,139,127.3,136.6,124.8z"/>
			<g id="XMLID_474_" class="st31">
				<path id="XMLID_514_" d="M90.6,74l0.9-4.8L88,64.5c0,0-0.4-6.3,2.2-7c2.7-0.7,6,0,6,0l2.5-2.8l13.1-1l10.4-4l10-7.6l3.9-7.4
					l-0.4-6.6c0,0-4.8,11.8-11.6,14.6c-6.8,2.8-21.6,7-27.1,7.4c-5.5,0.4-7.6,4.8-7.6,4.8l-2.2,6.4c0,0-0.3,1.6-1.8,2.4
					c-1.5,0.7-2.8,0.9-2.8,0.9l6.4,8.6L90.6,74z"/>
				<path id="XMLID_513_" d="M89,82.9l-0.9,1.8l-3,4.2c0,0,10.9-0.3,10.1-1.5C94.5,86.2,89,82.9,89,82.9z"/>
				<path id="XMLID_510_" d="M65,153.1c0,0-8.9-16.1-9.1-18c-0.1-1.9,3.7-6.4,3.7-6.4l8.5,9.7l11.8-38.4l-21,27.5l-4.8-4l-4.3,8.2
					l2.5,7.4l10.7,17.7L65,153.1z"/>
				<path id="XMLID_477_" d="M179.4,147.7c-2.1,0-1.6-1.6-5.1-1.9c-3.4-0.3-39.8-3.4-39.8-3.4l-3.1,6.1l-21.1-21.9l0.9,54.8l-49-2.1
					l0.1,3.5l-1.2,87.6l3.8,1.2l-0.6,14.3l-1,1.2l-0.8,7.3l16.3,0.4l-0.2-1.6l-11.9-2l1-19.9l6.9-0.6l2-12.4c-0.2,0-1-0.5-4.3-3.7
					c-5-4.8-4.2-12.5-4.2-12.5v-58.7l51,1.7l0.1-2.8l1.9-0.7l-4.3-40.9l9.8,18.2l1.3-0.9l4.9-10.1l39.8,0.9l3.1,2.5l6.6,0.6l1.6-1.9
					v-4.2C184,145.8,181.5,147.7,179.4,147.7z"/>
				<path id="XMLID_476_" d="M76.6,258.3l0,0.1C76.7,258.4,76.6,258.3,76.6,258.3z"/>
				<path id="XMLID_475_" d="M107.3,288.2l0.3-16.6l5.6,0.4l0.2-11.5c0,0-1.8,0.2-5.2-2.6c-3.4-2.8-5-9.7-5-9.7l-16.1-55.4
					l15.5,77.8l2.2,1l-0.4,16.7l-1.4,1.2l-0.2,5.8l14.3,1.2l2.4-1.4l-12.5-2.4L107.3,288.2z"/>
			</g>
			<g id="XMLID_449_">
				<path id="XMLID_473_" class="st29" d="M121.8,27.7c-3.4-3-8.2-0.2-10.9,2.7c-1.6,1.2-3.3,2.8-3.7,4.9c-1,5.1,6.4,3.1,8.9,1.9
					C118.8,36,125.8,31.3,121.8,27.7z"/>
				<path id="XMLID_472_" class="st29" d="M103.9,38.9c-0.9-0.9-2.4-0.2-3.4,0.1c-0.8,0.2-1,0.9-0.8,1.5c-0.2,0.9-0.1,1.9,0.9,2.4
					c1.1,0.6,2.3,0.1,3-0.8C104.2,41.2,104.8,39.7,103.9,38.9z"/>
				<path id="XMLID_471_" class="st29" d="M114,64.1c-0.7-0.5-1.2-1.2-1.6-1.9c-0.3-0.6-1.1-0.7-1.6-0.4c-0.6,0.3-0.7,1-0.4,1.6
					c0.5,1.1,1.4,2.1,2.4,2.8c0.5,0.4,1.3,0.1,1.6-0.4C114.8,65.1,114.6,64.4,114,64.1z"/>
				<path id="XMLID_470_" class="st29" d="M102.6,58.9c-0.8,1.4-1.6,2.8-2.3,4.3c-0.3,0.7,0.6,1.3,1,0.6c0-0.1,0.1-0.2,0.1-0.2
					c0,0,0,0,0-0.1c0.7-1.3,1.4-2.7,2.1-4C104,58.8,103,58.2,102.6,58.9z"/>
				<path id="XMLID_469_" class="st29" d="M106.4,58.6c-1.5,2.3-3.3,4.3-4.2,6.9c-0.3,0.7,0.9,1,1.1,0.3c0.9-2.5,2.7-4.4,4.1-6.6
					C107.8,58.6,106.8,58,106.4,58.6z"/>
				<path id="XMLID_468_" class="st29" d="M108.3,59.5c-1,2.2-2.2,4.2-3.6,6.1c-0.5,0.6,0.6,1.2,1,0.6c1.4-1.9,2.6-4,3.6-6.1
					C109.7,59.4,108.7,58.8,108.3,59.5z"/>
				<path id="XMLID_467_" class="st29" d="M115.6,58.1c-0.8,1.4-1.5,2.7-2.2,4.1c-0.2,0.5,0.3,1.2,0.8,0.8c0.1,0,0.1-0.1,0.2-0.1
					c0.2-0.1,0.3-0.3,0.3-0.5c0.6-1.3,1.3-2.5,2-3.7C117,58,116,57.4,115.6,58.1z"/>
				<path id="XMLID_466_" class="st29" d="M118.6,57.3c-1.6,2-3,4.2-4,6.6c-0.2,0.5,0.3,1.1,0.8,0.8l0.2-0.1
					c0.3-0.1,0.3-0.4,0.3-0.6c1-2.1,2.1-4,3.6-5.8C119.9,57.6,119.1,56.7,118.6,57.3z"/>
				<path id="XMLID_457_" class="st29" d="M120.4,58.4c-1.1,2.1-2.2,4.2-3.3,6.4c-0.4,0.7,0.6,1.2,1,0.6c0-0.1,0.1-0.1,0.1-0.2
					c0.1-0.1,0.1-0.2,0.1-0.3c1-2,2.1-3.9,3.1-5.9C121.8,58.3,120.8,57.7,120.4,58.4z"/>
				<path id="XMLID_456_" class="st29" d="M110.4,100.2c-0.9-0.9-2-1.6-3.1-1.7c-2.2-0.2-2.1,2.7-1.7,4.1c0.8,2.5,3.1,4.6,5,6.4
					c1.4,1.3,3.5,2.7,5.4,1.3C119.7,107.5,113.4,101.7,110.4,100.2z"/>
				<path id="XMLID_455_" class="st29" d="M121.8,114.6C121.7,114.6,121.7,114.6,121.8,114.6c-0.2-0.1-0.5-0.2-0.7-0.2
					c-0.7,0-1.4,0.3-1.8,0.9c-0.9,1.5,0.8,3.1,1.9,3.8c0.6,0.4,1.3,0.7,2,0.4c0.8-0.3,1.1-1.1,1.1-1.9
					C124.2,116.3,123.2,115.1,121.8,114.6z"/>
				<path id="XMLID_454_" class="st29" d="M150.5,139.2c-1.5-1.4-4.1-1.5-6-1.8c-0.8-0.1-2-0.5-2.7,0.1c-0.6,0.5-0.6,1.2-0.3,1.8
					c0.3,0.5,0.7,0.7,1.2,0.6c0,0,0.1,0.1,0.1,0.1c2.2,1,4.5,1.4,6.9,1.3C150.6,141.2,151.3,140,150.5,139.2z"/>
				<path id="XMLID_453_" class="st29" d="M161.4,140.3c-0.2-0.1-0.4-0.2-0.6-0.2c-0.2,0-0.4,0-0.6,0c-0.9,0.1-1.7,1.3-0.8,2
					c0.8,0.7,1.8,0.8,2.8,0.3C163.3,141.8,162.5,140.1,161.4,140.3z"/>
				<path id="XMLID_452_" class="st29" d="M182,138.1c-1.6-0.4-2.9,1-2.6,2.5c0.1,0.8,1.1,1.1,1.7,0.7c0.4-0.2,0.8-0.4,1.1-0.7
					c0.5-0.3,0.6-0.8,0.5-1.3C183,138.8,182.8,138.2,182,138.1z"/>
				<path id="XMLID_451_" class="st29" d="M75.8,100.9c-0.1-0.8-0.9-1.6-1.7-0.9c-0.3,0.2-0.5,0.4-0.8,0.6c-0.2,0.1-0.3,0.2-0.4,0.3
					c-2,1.6-3.9,3.2-5.7,4.9c-0.6,0.6-0.4,1.4,0.2,1.9c1.4,1,3.4-0.7,4.5-1.6c1.5-1.2,2.8-2.5,3.9-4.1C76,101.7,76,101.3,75.8,100.9
					z"/>
				<path id="XMLID_450_" class="st29" d="M61.8,111.3c-0.3-0.4-0.6-0.5-1-0.5c-0.2,0-0.3,0-0.5,0c-0.2,0.1-0.4,0.1-0.6,0.2
					c-0.5,0.1-0.9,0.6-0.9,1.1c0,1.2,1.1,2,2.2,1.6C61.9,113.4,62.3,112.2,61.8,111.3z"/>
			</g>
			<path id="XMLID_400_" class="st32" d="M69.7,273.9c0.2-1.3-0.5-1.7-1.8-1.7c-2.1,0-2.2,0-2.2,2.4c0,1,0,2-0.1,3
				c-0.1,2.3-0.1,4.6-0.2,6.8c-0.1,1.3,0.7,1.8,1.8,1.8c1.1,0.1,1.5-0.6,1.6-1.7c0.2-3.2,0.5-6.3,0.7-9.5c0,0,0,0,0.1,0
				C69.7,274.7,69.7,274.2,69.7,273.9z M69.5,287.7c-1.8,0.6-3.5,0.3-5.4-0.7c-0.2,2-0.3,3.6-0.4,5.3c-0.1,0.8,0.3,1.3,1.2,1.3
				c4.3,0.4,8.6,0.4,12.9,0.4c0-0.4,0-0.7-0.1-0.8c-2.1-1.7-4.3-3.5-6.4-5.2C70.8,287.8,70,287.6,69.5,287.7z M61.8,137.1
				c1.2,2.5,2.6,4.9,4,7.6c2.3-7.1,2.3-5.3-2-9.8c-0.1-0.1-0.3-0.2-0.6-0.3C62.6,135.3,61.2,135.8,61.8,137.1z M55.9,126
				c-0.4-0.4-0.9-0.7-1.5-1.2c-0.9,1.6-1.7,3.1-2.6,4.5c-1.4,2.1-1.3,4.1-0.2,6.4c3,6.2,6.7,11.9,10.4,17.6c0.3,0.5,0.7,0.8,1.4,1.6
				c0.4-1.6,0.6-2.7,0.9-3.7c0.7-1.9,0.5-3.7-0.4-5.4c-1.3-2.5-2.5-5.2-3.9-7.7c-0.8-1.4-0.8-2.4,0.4-3.4c0.2-0.2,0.4-0.5,0.6-0.7
				c0.8-0.8,0.7-1.5-0.1-2.3C59.3,129.9,57.6,127.9,55.9,126z M54.2,121.1c4.4,4.9,8.8,9.7,13.1,14.5c0.2,0.2,0.5,0.3,0.8,0.5
				c4.1-14,8.2-27.9,12.3-42c-0.6,0.4-1.2,0.7-1.6,1c-5.5,4.5-11.1,9-16.5,13.6c-3.2,2.7-6.1,5.6-9.2,8.4c-0.8,0.7-1,1.4-0.2,2.3
				C53.4,120,53.7,120.6,54.2,121.1z M169.8,141.2c-9.6-1.7-19.4-2.4-29-4.9c-1.9-0.5-1.9-0.5-2.7,1.2c-0.5,1.2-1,2.4-1.5,3.5
				c-0.7,1.8-1.4,3.6-2.3,5.8c2.3,0.1,4.1,0.2,6,0.2c10.7,0.3,21.4,0.7,32.1,1.1c0.7,0,1.7,0.3,2,0.8c1.6,3,4.3,2.3,6.8,2.2
				c1.1,0,1.5-0.8,1.6-1.8c0.2-2.3,0.3-4.5,0.5-6.8c0.1-1.9,0.2-2,2-2.3c1.3-0.2,2.7-0.3,4.6-0.6c-1.8-1.3-3.6-1.2-5.1-1.8
				c-2.5-0.8-4.6-0.5-6.6,1.1C175.7,141.1,172.9,141.7,169.8,141.2z M114.2,61.2c0.4,2.2,1.9,3.4,3.8,3.2c2.1-0.2,3.1-1.6,2.9-4
				c-0.1-1.6-0.4-1.9-2.1-1.9c-0.3,0-0.8,0.1-1.3,0.2c-0.6,0.1-1.2,0.1-1.8,0.2C114.3,59.2,113.9,59.8,114.2,61.2z M99.9,53.3
				c11.1,0.8,20.7-2.9,29.2-9.7c3.3-2.6,5.3-6.2,5.9-10.4c0.7-4.3-1.3-7.7-5.4-9c-2.7-0.9-5.4-1.1-8.2-0.7
				c-4.9,0.7-9.3,2.6-13.4,5.4c-4.3,2.9-8.1,6.3-11.2,10.5c-0.9,1.2-1.8,1.8-3.2,1.6c-0.5-0.1-1,0-1.5,0c-5.1,0.1-8.3,2.6-9.9,7.5
				c-1.1,3.3-1.3,6.6-0.3,10c1.3,4.9,3.6,9.2,6.9,13.1c0.3,0.4,0.8,0.7,1.4,1.2c0.5-2,0.5-3.3-0.8-4.7c-1.1-1.2-1.9-2.8-2.6-4.3
				c-0.8-1.6-0.9-3.4-0.5-5.2c0.8-3.4,3.3-5,6.6-4.1c1.1,0.3,2.2,0.9,3.3,1.3C97.8,53.1,97.8,53.1,99.9,53.3z M106.2,65
				c1.7-0.7,2.4-2,2.3-3.6c0.1-2.2-0.2-2.5-2.1-2.3c-1.4,0.1-2.8,0.3-4.1,0.6c-0.5,0.1-1.3,0.6-1.3,0.9c-0.1,1.6,0.3,3.2,1.6,4.3
				C103.7,65.9,105,65.5,106.2,65z M109.3,280.8c0-2.2,0.1-4.4,0-6.5c0-1.2-0.6-1.5-2.4-1.4c-1.1,0-1.3,0.6-1.3,1.5
				c0,3.5-0.1,6.9-0.2,10.4c0,0.7,0,1.4,0,2.1c0,1.2,0.9,1.4,1.8,1.4c1,0,1.7-0.3,1.7-1.5c0-2,0-4,0-5.9
				C109.1,280.8,109.2,280.8,109.3,280.8z M113.7,291.7c-1.9-1.3-3.8-2.4-6.2-1.7c-0.7,0.2-1.6-0.1-2.3-0.3c-0.9-0.2-1.3,0.2-1.4,1
				c-0.1,0.4-0.1,0.8-0.2,1.2c-0.4,2.7-0.3,3,2.4,3.1c3.9,0.1,7.9,0,11.8,0c0.1-0.2,0.2-0.4,0.3-0.6
				C116.6,293.6,115.1,292.7,113.7,291.7z M110.3,271c2.1-0.1,2.1-0.1,2.2-2.2c0.8-13.5,1.6-26.9,2.5-40.4
				c0.7-9.4,1.6-18.8,2.4-28.2c0.4-4.8,0.6-9.7,0.9-14.5c0.2-2.5,0.1-2.5-2.3-2.7c-0.3,0-0.6,0-0.9-0.1c-12.2-0.6-24.4-1.2-36.6-1.8
				c-4.6-0.2-9.1-0.5-13.7-0.9c-1.3-0.1-1.8,0.3-1.9,1.6c-0.1,3-0.5,5.9-0.5,8.9c-0.1,11.5,0,23,0,34.5c-0.2,0-0.3,0-0.5,0
				c0,9.9,0,19.8,0,29.7c0,4.2-0.1,8.3-0.1,12.5c0,2.5,0.1,2.5,2.5,2.7c2.3,0.1,4.6,0.2,6.8,0.2c2.6,0.1,2.6,0.1,3.1-2.4
				c1.1-5.4,2.1-10.9,3.2-16.4c2.9-15.2,5.6-30.4,10-45.3c0.5-1.8,0.6-3.7,0.2-5.6c-0.5-2.3-0.8-4.7-1.2-7.1
				c-0.1-0.4-0.2-0.8-0.1-1.2c0.1-0.3,0.4-0.8,0.7-0.8c0.3,0,0.8,0.3,0.9,0.5c0.3,0.9,0.6,1.9,0.7,2.9c1.6,9.8,3,19.6,4.8,29.3
				c1.9,10,4,20,6.2,30c1,4.8,2.4,9.6,3.6,14.4c0.3,1.4,1,2.1,2.4,2C107.3,271,108.8,271,110.3,271z M111.1,126
				c0.5,0.6,0.7,1.4,1.1,2.1c4.5,8.9,8.9,17.9,13.4,26.9c0.4,0.8,1,1.6,1.5,2.4c0.4-0.3,0.6-0.4,0.7-0.6c3.5-8.1,6.8-16.3,10.4-24.3
				c1.4-3.1,0.9-5.2-1.5-7.7c-10-10.8-20.1-21.4-30.6-31.6c-0.6-0.6-0.8-1.1-0.3-1.8c0.8-1.1,1.6-2.2,2.6-3.6
				c-6-2.5-12.1-3.9-18.6-5.7c0.4,3.2-1.3,5-3.2,6.6c-2.2,2-3.5,4.5-4.4,7.3c-2.8,9.2-5.8,18.3-8.5,27.6
				c-3.1,10.9-5.8,21.8-8.6,32.8c-1.7,6.5-3.1,13.1-4.7,19.6c-0.4,1.7-0.4,1.9,1.4,2c3.4,0.3,6.7,0.6,10.1,0.8
				c12.8,0.8,25.6,1.5,38.3,2.2c2.6,0.1,5.2,0.2,7.7,0.2c1.7,0,1.8-0.1,1.8-1.9c0-0.3-0.1-0.6-0.1-0.9c-1-10.4-2.1-20.7-2.9-31.1
				c-0.4-4.5-1.1-8.8-3.4-12.7c-1.2-1.9-1.9-4.1-2.9-6.2c-0.2-0.5-0.5-1.1-0.6-1.7c0-0.3,0.2-0.8,0.4-1
				C110.3,125.6,110.9,125.8,111.1,126z M111.2,60c0.2-0.5,0.6-1,0.7-1.5c0.1-0.7,0.2-1.4,0.1-2.1c-0.2-1.6-0.7-2-2.3-1.8
				c-2.5,0.2-4.9,0.6-7.4,0.6C100,55.1,98,55,97.4,58c-0.2,0.9-1.1,1-1.9,0.3c-0.2-0.2-0.4-0.5-0.6-0.7c-1.5-1.3-3.2-2.2-5.1-1.4
				c-1.6,0.6-2.4,3.2-1.9,5.5c0.1,0.6,0.3,1.2,0.6,1.7c0.8,1.4,1.5,2.8,2.6,3.9c1.1,1.2,1.5,2.4,1.1,3.8c-1,3.2,0.2,6.1,1,9
				c0.1,0.5,0.6,1.1,1,1.3c2.3,0.7,4.7,1.3,7,1.9c0-2.1,0.3-4-0.1-5.7c-0.4-1.6,0.2-1.8,1.5-2.1c3.4-0.8,6.3-2.3,8.5-5.1
				c1-1.3,2.2-2.3,3.7-3.9c-0.8-1.1-1.7-2.5-2.7-3.8c-0.7-1-1.4-0.9-1.9,0.2c-0.2,0.4-0.2,0.8-0.4,1.1c-1.2,2.2-4.1,3.7-6.5,3.3
				c-2.1-0.4-3.7-2.3-4-5c-0.1-0.7-0.1-1.4-0.1-2.1c0-1.3,0.5-2.1,1.8-2.3c2.3-0.3,4.5-0.6,6.8-0.8c1.2-0.1,2.1,0.2,2.4,1.6
				C110.4,59.2,110.9,59.6,111.2,60z M112.4,272.8c-1.1-0.1-1.3,0.7-1.3,1.5c-0.1,4-0.1,7.9-0.3,11.9c0,1.2,0.5,1.8,1.4,2.4
				c1.8,1.1,3.5,2.2,5.3,3.3c0.8,0.5,1.7,1.1,2.4,1.8c1.1,1.2,0.6,2.7-1,3.1c-0.3,0.1-0.6,0.2-0.9,0.2c-4.4,0-8.7,0-13.1-0.2
				c-3-0.2-3.4-0.8-3.2-3.8c0.1-1.8,0.1-3.6,1.4-5.1c0.4-0.5,0.5-1.3,0.5-1.9c0.1-3.7,0.1-7.3,0.2-11c0-1.1-0.1-2.1-1-2.9
				c-0.5-0.4-0.7-1.2-0.8-1.9c-4-15.2-7.5-30.4-10.1-45.9c-0.8-4.8-1.7-9.5-2.6-15c-0.5,1.2-0.9,1.8-1,2.4
				c-2.3,10.4-4.8,20.9-7,31.4c-1.8,8.6-3.4,17.3-5,26c-0.3,1.8-1,3.2-3.1,3.2c-1,0-1.3,0.7-1.4,1.5c-0.2,3.5-0.5,6.9-0.8,10.4
				c-0.1,0.9,0.4,1.5,1,2c2.1,1.6,4.1,3.1,6.1,4.8c1,0.8,1.9,1.7,2.6,2.8c0.9,1.3,0.4,2-1.1,2.1c-1.6,0.1-3.2,0-4.8,0
				c-3.5,0-6.9,0-10.4-0.1c-2.1,0-2.5-0.3-2.4-2.4c0.1-2.8-0.4-5.8,1.6-8.3c0.2-0.3,0.3-0.7,0.3-1.1c0.1-3.3,0.2-6.5,0.3-9.8
				c0-1.3-0.2-2.4-2-2.2c-1.5,0.1-1.8-0.9-1.8-2.1c0-3.2-0.1-6.4-0.1-9.5c0.2-19.6,0.4-39.3,0.6-58.9c0-4.9,0-9.7,0-14.6
				c0-1.8,0.2-3.6,0.4-5.3c0.1-0.9-0.2-1.3-1.2-1.7c-2.6-0.8-2.4-0.9-1.7-3.6c1.5-5.5,2.8-11,4.2-16.4c0.4-1.5,0.1-2.6-0.8-3.8
				c-4.3-6.1-8.2-12.4-11.6-19c-1.5-3-1.8-5.8,0.2-8.6c0.2-0.3,0.3-0.7,0.6-1c1.9-2.5,2.7-4.9,0-7.5c-1.2-1.2-0.9-1.9,0.5-3.3
				c3.5-3.3,7.1-6.7,10.8-9.8c6.4-5.4,12.9-10.5,19.4-15.8c1.8-1.5,3.6-3.1,5.2-4.9c0.6-0.7,0.9-1.9,1.1-2.9
				c0.4-2.6,0.4-2.6,3.3-2.8c0-2.6-1.2-4.5-2.8-6.2c-2.7-2.9-4.9-6.2-6.5-9.9c-2.2-5-3.3-10.1-1.6-15.6c1.8-6.1,5.6-9.1,11.9-9.2
				c1.7,0,2.9-0.5,4-1.9c4.8-5.9,10.6-10.7,17.7-13.7c4.7-2,9.5-2.7,14.6-1.6c6.4,1.3,9.4,5.7,8.3,12.2c-0.8,4.8-3.4,8.4-7,11.4
				c-4,3.3-8.7,5.6-13.5,7.4c-0.4,0.1-0.8,0.3-1.1,0.4c-0.8,0.3-1.8,0.3-1.4,1.7c0.5,1.8,0.6,2,2.3,2c1.6,0,3.2-0.2,4.8-0.1
				c0.6,0,1.4,0.5,1.6,1c1.7,3.4,0.1,7.1-3.6,8.3c-0.4,0.1-1,0.1-1.1,0.3c-1,3.2-4.8,3.4-6.3,6.3c-1.1,2.1-3.6,3-5.9,3.8
				c-2.3,0.9-2.3,0.9-2.2,3.2c0.1,4.1,0.1,4.1,4,5.5c3.6,1.3,3.8,1.7,1.5,4.9c-0.9,1.2-0.8,2,0.2,3c3.2,3.2,6.4,6.5,9.6,9.8
				c7.2,7.6,14.4,15.3,21.7,22.9c1,1,1.2,2,0.9,3.3c-0.3,1-0.6,2.1-1,3.1c-0.5,1.2-0.2,1.9,1.1,2.2c2.1,0.5,4.2,1.1,6.4,1.4
				c7.5,1.2,15.1,2.3,22.6,3.4c2.6,0.4,5-0.2,7-1.8c2.4-2,4.9-2.4,7.8-1.4c1.7,0.6,3.5,0.8,5.2,1.3c0.7,0.2,1.3,0.4,1.9,0.8
				c1.3,0.8,1.2,2.2-0.2,2.7c-1.4,0.5-2.9,0.7-4.3,0.9c-2.3,0.3-2.2,0.3-2.4,2.5c-0.1,1.9-0.2,3.8-0.5,5.6c-0.3,2-1.1,2.8-3.1,3
				c-1.6,0.1-3.2,0.2-4.7-0.1c-0.9-0.1-2.1-0.6-2.5-1.3c-1-1.7-2.5-1.7-4.1-1.7c-11.3-0.4-22.6-0.8-33.9-1.1c-2.8-0.1-2.8-0.1-4,2.5
				c-1.1,2.3-2.1,4.7-3.2,7c-0.4,0.7-1,1.7-1.7,1.8c-1.2,0.3-1.6-1-2-1.8c-1.8-3.3-3.5-6.7-5.3-10c-0.4-0.7-0.7-1.3-1.6-1.8
				c0,0.9-0.1,1.9,0,2.8c0.7,6.8,1.3,13.6,2,20.4c0.3,3.3,0.7,6.5,0.9,9.8c0.1,1.4,0.4,2.9-0.9,4.1c-0.4,0.4-0.3,1.3-0.4,2
				c-0.3,4.6-0.5,9.3-0.9,14c-0.5,6.6-1.3,13.2-1.8,19.9c-0.7,9.5-1.4,19-2,28.5c-0.3,4.3-0.6,8.7-0.9,13.1
				c-0.2,3.2-0.2,6.3-0.3,9.5C114.3,271.8,114.3,273,112.4,272.8z"/>
		</g>
	</g>
</g>
</svg>
